<svg width="800" height="450" xmlns="http://www.w3.org/2000/svg" viewBox="0 0 800 450">
  <style>
    .container { fill: #f0f4f8; stroke: #d1d9e6; stroke-width: 2; rx: 10; }
    .component { fill: #ffffff; stroke: #a0aec0; stroke-width: 1; rx: 5; }
    .actor { fill: #ebf8ff; stroke: #4299e1; stroke-width: 2; rx: 5; }
    .ci-tool { fill: #e6fffa; stroke: #38b2ac; stroke-width: 1; rx: 5; }
    .text { font-family: 'Segoe UI', Tahoma, Geneva, Verdana, sans-serif; font-size: 14px; fill: #2d3748; }
    .title { font-size: 16px; font-weight: bold; }
    .arrow { stroke: #718096; stroke-width: 2; fill: none; marker-end: url(#arrowhead); }
    .dashed-arrow { stroke-dasharray: 5,5; }
  </style>
  <defs>
    <marker id="arrowhead" markerWidth="10" markerHeight="7" refX="10" refY="3.5" orient="auto">
      <polygon points="0 0, 10 3.5, 0 7" fill="#718096" />
    </marker>
  </defs>

  <rect x="10" y="50" width="100" height="50" class="actor"/>
  <text x="60" y="80" class="text" text-anchor="middle">Developer</text>

  <rect x="690" y="200" width="100" height="50" class="actor"/>
  <text x="740" y="230" class="text" text-anchor="middle">End User</text>

  <rect x="150" y="10" width="500" height="130" class="container"/>
  <text x="160" y="30" class="title">CI/CD &amp; Infrastructure Management</text>

  <rect x="170" y="50" width="120" height="50" class="component"/>
  <text x="230" y="80" class="text" text-anchor="middle">GitHub Actions</text>

  <rect x="310" y="50" width="120" height="50" class="component"/>
  <text x="370" y="80" class="text" text-anchor="middle">Terraform</text>

  <rect x="460" y="50" width="150" height="50" class="ci-tool"/>
  <text x="535" y="70" class="text" text-anchor="middle">Workload Identity</text>
  <text x="535" y="90" class="text" text-anchor="middle">Federation (WIF)</text>

  <rect x="150" y="150" width="500" height="280" class="container"/>
  <text x="160" y="170" class="title">Google Cloud Platform (GCP)</text>

  <rect x="170" y="190" width="140" height="80" class="component"/>
  <text x="240" y="220" class="text" text-anchor="middle">Artifact Registry</text>
  <text x="240" y="245" class="text" text-anchor="middle">(Images &amp; Attestations)</text>

  <rect x="340" y="190" width="290" height="220" class="container" style="fill: #e2e8f0;"/>
  <text x="350" y="210" class="title">GKE Autopilot Cluster</text>

  <rect x="360" y="230" width="120" height="50" class="component"/>
  <text x="420" y="260" class="text" text-anchor="middle">Gateway API</text>

  <rect x="500" y="230" width="110" height="50" class="component"/>
  <text x="555" y="250" class="text" text-anchor="middle">Binary</text>
  <text x="555" y="270" class="text" text-anchor="middle">Authorization</text>

  <rect x="360" y="300" width="120" height="50" class="component"/>
  <text x="420" y="330" class="text" text-anchor="middle">Next.js Pods</text>

  <rect x="500" y="300" width="110" height="50" class="ci-tool"/>
  <text x="555" y="320" class="text" text-anchor="middle">Workload</text>
  <text x="555" y="340" class="text" text-anchor="middle">Identity</text>

  <path d="M110,75 C 130,75 130,75 170,75" class="arrow"/>

  <path d="M300,100 C 300,115 460,115 460,100" class="arrow dashed-arrow"/>
  <text x="380" y="125" class="text" text-anchor="middle" font-size="12px">Authenticates</text>

  <path d="M430,90 C 430,120 400,120 400,150" class="arrow"/>
  <text x="430" y="135" class="text" text-anchor="middle" font-size="12px">Provisions</text>

  <path d="M230,100 C 230,140 240,140 240,190" class="arrow"/>
  <text x="265" y="155" class="text" text-anchor="middle" font-size="12px">Pushes &amp; Signs</text>

  <path d="M290,75 C 310,75 330,150 360,210" class="arrow"/>
  <text x="340" y="120" class="text" text-anchor="middle" font-size="12px">Deploys</text>

  <path d="M500,255 C 450,255 310,255 310,255" class="arrow dashed-arrow"/>
  <text x="405" y="275" class="text" text-anchor="middle" font-size="12px">Verifies Attestation</text>

  <path d="M420,280 C 420,290 420,290 420,300" class="arrow"/>

  <path d="M690,225 C 670,225 640,235 610,240" class="arrow"/>
  <text x="650" y="220" class="text" text-anchor="middle" font-size="12px">Traffic</text>

  <path d="M480,325 C 490,325 490,325 500,325" class="arrow dashed-arrow"/>
</svg>
